<?xml version="1.0" encoding="UTF-8"?>
<svg id="Layer_2" data-name="Layer 2" xmlns="http://www.w3.org/2000/svg" viewBox="0 0 76.53 76.53">
  <defs>
    <style>
      .cls-1 {
        fill: #fff;
        stroke-width: 0px;
      }
    </style>
  </defs>
  <g id="Layer_1-2" data-name="Layer 1">
    <g>
      <path class="cls-1" d="M40.88.09C17.72-1.47-1.47,17.72.09,40.88c1.25,18.63,16.08,33.83,34.68,35.49,23.84,2.13,43.74-17.77,41.61-41.61C74.71,16.17,59.51,1.34,40.88.09ZM42.1,73.33C20.17,75.66,1.69,57.73,3.07,35.96,4.19,18.42,18.42,4.19,35.96,3.07c21.77-1.39,39.69,17.1,37.36,39.02-1.74,16.35-14.88,29.49-31.23,31.23Z"/>
      <path class="cls-1" d="M53.33,38.26h0c0,.83-.67,1.5-1.5,1.5h-12.07v12.07c0,.83-.67,1.5-1.5,1.5h0c-.83,0-1.5-.67-1.5-1.5v-12.07h-12.06c-.83,0-1.5-.67-1.5-1.5h0c0-.83.67-1.5,1.5-1.5h12.06v-12.06c0-.83.67-1.5,1.5-1.5h0c.83,0,1.5.67,1.5,1.5v12.06h12.07c.83,0,1.5.67,1.5,1.5Z"/>
    </g>
  </g>
</svg>