<?xml version="1.0" encoding="UTF-8"?>
<svg id="Layer_2" data-name="Layer 2" xmlns="http://www.w3.org/2000/svg" viewBox="0 0 280.19 357.09">
  <defs>
    <style>
      .cls-1 {
        fill: #f4f7f9;
      }

      .cls-1, .cls-2 {
        stroke-width: 0px;
      }

      .cls-2 {
        fill: #54abed;
      }
    </style>
  </defs>
  <g id="Layer_1-2" data-name="Layer 1">
    <g>
      <path class="cls-2" d="M0,0h228.56c28.5,0,51.63,23.14,51.63,51.63v253.82c0,28.5-23.14,51.63-51.63,51.63H0V0h0Z"/>
      <g>
        <path class="cls-1" d="M70.82,187.79c.57-.19,1.14-.38,1.72-.57-.54.25-1.12.44-1.72.57Z"/>
        <path class="cls-1" d="M131.42,246.1c-.19.58-.38,1.15-.57,1.72.13-.6.32-1.18.57-1.72Z"/>
        <path class="cls-1" d="M157.6,266.02c-2.87-4.78-5.48-10.34-7.75-16.76-.17-.48-.33-.96-.5-1.44-.13-.6-.32-1.18-.57-1.72-1.46-3.34-4.8-5.67-8.68-5.67s-7.22,2.33-8.68,5.67c-.25.54-.44,1.12-.57,1.72-.17.48-.33.96-.5,1.44-37.85,106.81-167.78-23.12-60.97-60.97.47-.17.93-.32,1.4-.49.02,0,.03,0,.04-.01.6-.13,1.18-.32,1.72-.57.02,0,.03,0,.04-.01,3.32-1.48,5.63-4.81,5.63-8.67s-2.31-7.19-5.63-8.67c-.01,0-.02,0-.04,0-.54-.25-1.12-.44-1.72-.57-.02-.01-.05-.02-.08-.02-.46-.17-.9-.31-1.36-.48-100.39-35.57,8.36-152.5,53.22-77.73,2.87,4.78,5.48,10.34,7.75,16.76.17.47.32.93.49,1.4,0,.02,0,.03.01.04.13.6.32,1.18.57,1.72,0,.02,0,.03.01.04,1.48,3.32,4.81,5.63,8.67,5.63s7.19-2.31,8.67-5.63c.01-.01.01-.02.01-.04.25-.54.44-1.12.57-1.72.01-.02.02-.05.02-.08.17-.46.31-.9.48-1.36,35.57-100.39,152.5,8.36,77.73,53.22-4.78,2.87-10.34,5.48-16.76,7.75-.47.17-.79.28-1.35.47-.01,0-.07.02-.09.03-.6.13-1.18.32-1.72.57-.02,0-.03,0-.04,0-3.32,1.48-5.63,4.81-5.63,8.67s2.31,7.19,5.63,8.67c.01.01.02.01.04.01.54.25,1.12.44,1.72.57,0,.01.02.01.04.01.47.17.93.32,1.4.49,100.39,35.57-8.36,152.5-53.22,77.73Z"/>
        <path class="cls-1" d="M70.82,169.29c.6.13,1.18.32,1.72.57-.58-.19-1.15-.38-1.72-.57Z"/>
        <path class="cls-1" d="M131.42,110.98c-.25-.54-.44-1.12-.57-1.72.19.57.38,1.14.57,1.72Z"/>
        <path class="cls-1" d="M148.78,110.98c.19-.58.38-1.15.57-1.72-.13.6-.32,1.18-.57,1.72Z"/>
        <path class="cls-1" d="M148.78,246.1c.25.54.44,1.12.57,1.72-.19-.57-.38-1.14-.57-1.72Z"/>
        <path class="cls-1" d="M70.74,169.27c-.45-.1-.92-.17-1.4-.2.02-.1.03-.19.04-.28.46.17.9.31,1.36.48Z"/>
        <path class="cls-1" d="M69.34,188.01c.49-.03.97-.1,1.44-.21-.47.17-.93.32-1.4.49-.01-.09-.02-.18-.04-.28Z"/>
        <path class="cls-1" d="M70.82,187.79c.57-.19,1.14-.38,1.72-.57-.54.25-1.12.44-1.72.57Z"/>
        <path class="cls-1" d="M70.82,169.29c.6.13,1.18.32,1.72.57-.58-.19-1.15-.38-1.72-.57Z"/>
        <path class="cls-1" d="M130.84,109.22c-.17-.47-.32-.93-.49-1.4.09-.01.18-.02.28-.04.03.49.1.97.21,1.44Z"/>
        <path class="cls-1" d="M130.35,249.26c.17-.48.33-.96.5-1.44-.12.48-.19.97-.22,1.48-.1-.02-.19-.03-.28-.04Z"/>
        <path class="cls-1" d="M130.85,247.82c.13-.6.32-1.18.57-1.72-.19.58-.38,1.15-.57,1.72Z"/>
        <path class="cls-1" d="M130.85,109.26c.19.57.38,1.14.57,1.72-.25-.54-.44-1.12-.57-1.72Z"/>
        <path class="cls-1" d="M148.78,246.1c.25.54.44,1.12.57,1.72-.19-.57-.38-1.14-.57-1.72Z"/>
        <path class="cls-1" d="M149.35,109.26c-.13.6-.32,1.18-.57,1.72.19-.58.38-1.15.57-1.72Z"/>
        <path class="cls-1" d="M149.57,107.78c.1.02.19.03.28.04-.17.46-.31.9-.48,1.36.1-.45.17-.92.2-1.4Z"/>
        <path class="cls-1" d="M149.35,247.82c.17.48.33.96.5,1.44-.09.01-.18.02-.28.04-.03-.51-.1-1-.22-1.48Z"/>
        <path class="cls-1" d="M131.42,110.98c-.25-.54-.44-1.12-.57-1.72.19.57.38,1.14.57,1.72Z"/>
        <path class="cls-1" d="M149.35,109.26c-.13.6-.32,1.18-.57,1.72.19-.58.38-1.15.57-1.72Z"/>
        <path class="cls-1" d="M131.42,246.1c-.19.58-.38,1.15-.57,1.72.13-.6.32-1.18.57-1.72Z"/>
        <path class="cls-1" d="M149.35,247.82c-.19-.57-.38-1.14-.57-1.72.25.54.44,1.12.57,1.72Z"/>
        <path class="cls-1" d="M72.54,187.22c-.54.25-1.12.44-1.72.57.57-.19,1.14-.38,1.72-.57Z"/>
        <path class="cls-1" d="M72.54,169.86c-.58-.19-1.15-.38-1.72-.57.6.13,1.18.32,1.72.57Z"/>
        <circle class="cls-2" cx="140.1" cy="178.54" r="28.74"/>
      </g>
    </g>
  </g>
</svg>